<?xml version="1.0" encoding="UTF-8"?>
<svg id="Capa_1" xmlns="http://www.w3.org/2000/svg" version="1.1" viewBox="0 0 405.23 44.39">
  <!-- Generator: Adobe Illustrator 30.1.0, SVG Export Plug-In . SVG Version: 2.1.1 Build 136)  -->
  <defs>
    <style>
      .st0 {
        fill: #fff;
      }
    </style>
  </defs>
  <g>
    <path class="st0" d="M74.12,8.07v32.71h-7.57v-13.42h-14.86v13.42h-7.57V8.07h7.57v12.89h14.86v-12.89s7.57,0,7.57,0Z"/>
    <path class="st0" d="M112.79,33.77h-15.19l-2.9,7.01h-7.76l14.58-32.71h7.48l14.64,32.71h-7.95s-2.9-7.01-2.9-7.01ZM110.4,28.02l-5.18-12.54-5.18,12.54h10.39-.03Z"/>
    <path class="st0" d="M166.39,31.86c0,5.66-4.48,8.94-13.09,8.94h-16.92V8.07h15.98c8.18,0,12.39,3.42,12.39,8.51,0,3.27-1.69,5.8-4.34,7.21,3.66,1.16,5.98,3.97,5.98,8.09h0ZM143.92,13.77v7.72h7.52c3.7,0,5.7-1.31,5.7-3.88s-2.01-3.84-5.7-3.84h-7.52ZM158.77,31.06c0-2.75-2.1-4.07-6.03-4.07h-8.83v8.09h8.83c3.94,0,6.03-1.22,6.03-4.01Z"/>
    <path class="st0" d="M181.49,8.07h7.57v32.71h-7.57V8.07Z"/>
    <path class="st0" d="M212.94,14.23h-10.46v-6.16h28.52v6.16h-10.46v26.55h-7.57V14.23s-.03,0-.03,0Z"/>
    <path class="st0" d="M264.32,33.77h-15.19l-2.9,7.01h-7.76l14.58-32.71h7.48l14.64,32.71h-7.95s-2.9-7.01-2.9-7.01ZM261.93,28.02l-5.18-12.54-5.18,12.54h10.39-.03Z"/>
    <path class="st0" d="M293.06,14.23h-10.46v-6.16h28.52v6.16h-10.46v26.55h-7.57V14.23s-.03,0-.03,0Z"/>
    <path class="st0" d="M360.07,8.07v32.71h-11.03v-24.4h-5.61v-8.31h16.64Z"/>
    <path class="st0" d="M402.43,30.08c0,7.01-5.88,11.45-13.27,11.45-9.36,0-15.7-5.37-15.7-16.09,0-11.45,7.33-18.13,18.13-18.13,3.88,0,7.67.94,10.15,2.57l-3.97,7.72c-1.91-1.36-3.88-1.73-5.94-1.73-3.73,0-6.36,1.91-7.1,5.57,1.63-1.16,3.73-1.82,6.51-1.82,5.98,0,11.22,4.07,11.22,10.46h-.03,0ZM391.77,30.6c0-2.04-1.4-3.37-3.37-3.37s-3.37,1.31-3.37,3.37,1.4,3.31,3.37,3.31,3.37-1.27,3.37-3.31Z"/>
  </g>
  <g>
    <rect class="st0" x="19.14" y="33.82" width="7.72" height="7.72"/>
    <path class="st0" d="M26.88,15.43h0c-4.3,0-7.8-3.49-7.8-7.8v-.64h7.8v8.44Z"/>
    <rect class="st0" x="26.88" y="2.28" width="4.71" height="4.71"/>
    <polygon class="st0" points="26.88 19.67 12.38 19.67 12.38 7.17 3 7.17 3 41.54 12.38 41.54 12.38 29.05 26.88 29.05 26.88 19.67"/>
  </g>
</svg>