<?xml version="1.0" encoding="UTF-8"?>
<svg id="Capa_1" xmlns="http://www.w3.org/2000/svg" version="1.1" viewBox="0 0 80 24.96">
  <!-- Generator: Adobe Illustrator 30.1.0, SVG Export Plug-In . SVG Version: 2.1.1 Build 136)  -->
  <defs>
    <style>
      .st0 {
        fill: #fff;
        fill-rule: evenodd;
      }
    </style>
  </defs>
  <path class="st0" d="M13.75,2.2c1.35.5,2.43,1.55,2.96,2.88l5.81,15.31s0,.07-.04.08h-.02s-2.69,0-2.69,0c-.03,0-.05-.02-.06-.04l-5.45-14.36c-.25-.66-.77-1.18-1.44-1.42-1.25-.46-2.65.15-3.15,1.37l-1.31,3.46c-1.26.63-2.13,1.93-2.13,3.42,0,.51.1,1,.28,1.44l-2.31,6.09s-.03.04-.06.04H1.45s-.07-.03-.07-.06v-.02S7.17,5.16,7.17,5.16c.99-2.61,3.94-3.93,6.58-2.96ZM29.38,5.49h.31s.38,0,.38,0l.3.02.33.04.23.04.34.07.24.06.15.04.27.08.23.08.11.04.28.11.2.09.22.11.24.13.11.06.22.13.21.14.09.06.25.18.2.15.18.15.11.1.18.17.11.11.11.11.12.12.11.13.1.12.18.22.23.31.09.12.14.22.09.15.16.28.11.22.12.26.1.23.09.23.07.21.06.19.05.17.03.12c.02.09.05.19.07.28l.03.16.03.16.03.17c.01.1.03.2.04.3v.15c.03.13.03.26.04.39v.15s0,11.08,0,11.08c0,.1-.08.19-.19.19h-2.26c-.1,0-.18-.07-.19-.17v-.02s0-5.32,0-5.32l-.24.19-.19.14-.15.11-.13.09-.17.11-.2.12-.28.15-.12.06-.22.11-.3.13-.25.1-.13.05-.32.1-.12.03-.28.07-.27.06-.24.04-.14.02-.26.03h-.12s-.19.03-.19.03h-.23s-.24.01-.24.01c-4.11,0-7.45-3.32-7.45-7.42s3.21-7.29,7.21-7.42ZM24.81,12.9c0-2.65,2.15-4.79,4.81-4.79.16,0,.31,0,.47.02h.11s.23.05.23.05l.12.02.14.03.22.05.23.07.24.08c.1.04.2.08.3.13l.07.03.24.13.19.11c.07.04.14.09.2.13l.11.08.11.09c.16.13.31.26.46.41l.15.16c.71.79,1.16,1.82,1.22,2.95v.06s0,.25,0,.25c-.03,2.41-1.85,4.38-4.19,4.68l-.15.02h-.19s-.28.02-.28.02c-2.65,0-4.81-2.14-4.81-4.79ZM10.23,10.5c1.42,0,2.57,1.14,2.57,2.54s-1.15,2.54-2.57,2.54-2.57-1.14-2.57-2.54,1.15-2.54,2.57-2.54ZM50.08,6.42l-.13-.07-.33-.16-.26-.12-.33-.13c-.17-.06-.34-.12-.51-.17l-.12-.03c-.25-.07-.51-.12-.77-.16h-.08s-.35-.05-.35-.05l-.19-.02c-.18-.01-.37-.02-.56-.02-4.11,0-7.45,3.31-7.45,7.4s3.33,7.4,7.45,7.4h.24s.35-.02.35-.02l.38-.04.29-.04.3-.06.29-.07.28-.08.34-.11.25-.09.28-.12.29-.14.24-.12.24-.14.3-.18.28-.19c.15-.11.29-.22.43-.33l.03-.02v1.77c.01.09.09.17.19.17h2.26c.1,0,.19-.08.19-.19v-7.87s-.04-.27-.04-.27l-.04-.31-.04-.26-.06-.31-.05-.22-.1-.34-.05-.17-.09-.24-.16-.4-.12-.26-.18-.34-.15-.25-.08-.13-.14-.21-.11-.15-.2-.26-.11-.14-.22-.25-.16-.17-.2-.2-.13-.12-.16-.14-.36-.29-.24-.17-.29-.19-.34-.2ZM46.46,8.11c-2.65,0-4.81,2.14-4.81,4.78s2.15,4.78,4.81,4.78h.29s.17-.02.17-.02l.27-.03h.05c.14-.03.27-.06.4-.09l.24-.07.25-.09.1-.04.13-.06.24-.11.22-.12.18-.11.16-.11.19-.13c1.15-.87,1.9-2.23,1.91-3.78v-.31c-.05-.68-.23-1.32-.52-1.89l-.13-.24-.15-.24-.06-.09-.12-.16-.11-.14-.13-.15-.09-.1-.14-.14-.21-.19-.21-.17-.17-.12-.18-.12-.23-.14-.11-.06-.24-.12-.19-.08-.22-.08-.18-.06-.18-.05-.2-.05-.2-.04-.21-.03h-.12c-.17-.03-.34-.04-.51-.04ZM76.23,7.45l-.1-.09-.22-.19-.14-.11-.23-.17-.24-.16-.29-.18-.26-.15-.15-.08-.18-.09-.24-.11-.21-.09-.17-.07-.33-.12-.27-.08-.15-.04-.24-.06-.34-.07-.23-.04-.13-.02-.2-.02-.23-.02h-.27s-.18-.02-.18-.02h-.31c-4,.13-7.21,3.39-7.21,7.4s3.33,7.4,7.45,7.4h.24s.23-.01.23-.01h.19s.23-.04.23-.04l.15-.02.14-.02.24-.04.16-.03.11-.03.16-.04.24-.06.21-.07.24-.08.25-.1.2-.09.32-.15.12-.06.28-.15.28-.17.22-.15.15-.11.19-.14.24-.19v1.77c.01.09.09.17.19.17h2.26c.1,0,.19-.08.19-.19v-7.65c0-.13-.02-.26-.03-.39v-.15s-.05-.29-.05-.29c-.02-.11-.03-.22-.06-.33l-.03-.16-.07-.28-.03-.12-.08-.28-.06-.17-.09-.24-.04-.11-.1-.23-.12-.26-.11-.22-.08-.15-.16-.28-.06-.09-.17-.25-.14-.19-.17-.21-.11-.13-.1-.12-.23-.25-.11-.11-.19-.18ZM71.17,8.11c-2.65,0-4.81,2.14-4.81,4.78s2.15,4.78,4.81,4.78h.28s.19-.02.19-.02l.15-.02c2.34-.3,4.15-2.27,4.19-4.67v-.16s0-.16,0-.16c-.06-1.13-.51-2.15-1.22-2.94l-.08-.09-.07-.07c-.14-.15-.3-.28-.46-.41l-.11-.09-.11-.08c-.07-.05-.13-.09-.2-.13l-.19-.11-.24-.12-.07-.03c-.1-.05-.2-.09-.3-.13l-.13-.05-.26-.08-.16-.04-.26-.06-.12-.02-.12-.02-.23-.03c-.15-.01-.31-.02-.47-.02ZM63.46,8.35v-2.61h-.12c-4.11.07-7.42,3.35-7.42,7.39v7.28s.03.07.06.07h2.53s.06-.03.06-.07v-7.36c.04-2.6,2.21-4.7,4.88-4.7Z"/>
</svg>