<?xml version="1.0" encoding="UTF-8"?>
<svg id="Capa_1" xmlns="http://www.w3.org/2000/svg" version="1.1" viewBox="0 0 150 96.11">
  <!-- Generator: Adobe Illustrator 30.1.0, SVG Export Plug-In . SVG Version: 2.1.1 Build 136)  -->
  <defs>
    <style>
      .st0 {
        fill: #fff;
      }
    </style>
  </defs>
  <path class="st0" d="M141.92,72.95v-34.28c-.01-9.87-8.04-17.9-17.93-17.9-9.88,0-17.91,8.04-17.92,17.92v16.28c0,9.88,8.04,17.92,17.92,17.92,4.22,0,8.31-1.48,11.53-4.2v4.3c0,6.24-5.42,11.52-11.83,11.52-3.54,0-7.06-1.61-9.2-4.2l-.02-.02c-.61-.73-1.51-1.16-2.46-1.16-1.77,0-3.19,1.44-3.19,3.21,0,.73.25,1.43.71,2l.02.02c3.37,4.09,8.65,6.53,14.14,6.53,10.05,0,18.22-8.04,18.22-17.92v-.03h0ZM135.53,38.69v16.28c0,6.37-5.17,11.52-11.53,11.53-6.37,0-11.53-5.17-11.53-11.54v-16.28c0-6.37,5.17-11.52,11.53-11.53,6.37,0,11.53,5.16,11.53,11.53ZM78.76,20.77c-9.89,0-17.94,8.04-17.95,17.93v29.51c0,1.77,1.44,3.2,3.2,3.2s3.2-1.44,3.2-3.2v-29.5c0-6.37,5.17-11.54,11.55-11.55,6.37,0,11.54,5.17,11.55,11.55v29.5c0,1.76,1.44,3.2,3.2,3.2s3.2-1.44,3.2-3.2v-29.5c0-9.89-8.05-17.94-17.95-17.94h0ZM34.6,24.07l-.03-.03-.06-.04c-2.99-2.1-6.56-3.23-10.22-3.23h0s-.04,0-.06,0c-9.35,0-16.13,7.55-16.13,17.9v29.54c0,1.77,1.43,3.2,3.2,3.2s3.2-1.44,3.2-3.2v-29.49c0-7.02,3.83-11.55,9.75-11.55,2.41,0,4.75.74,6.71,2.15,1.47.98,3.46.59,4.44-.88.35-.53.54-1.14.54-1.78,0-1.02-.5-1.99-1.33-2.59h0s0,0,0,0Z"/>
  <path class="st0" d="M27.88,28.35"/>
  <path class="st0" d="M46.91,23.6c-1.76,0-3.19,1.43-3.19,3.19v41.43c0,1.76,1.43,3.19,3.19,3.19s3.19-1.43,3.19-3.19V26.79c0-1.76-1.43-3.19-3.19-3.19Z"/>
  <path class="st0" d="M46.86,5.21c-2.76,0-5.01,2.25-5.01,5.01s2.25,5.01,5.01,5.01,5.01-2.25,5.01-5.01-2.25-5.01-5.01-5.01Z"/>
</svg>