<?xml version="1.0" encoding="UTF-8"?>
<svg id="Layer_1" xmlns="http://www.w3.org/2000/svg" version="1.1" viewBox="0 0 122.87 48.33">
  <!-- Generator: Adobe Illustrator 30.1.0, SVG Export Plug-In . SVG Version: 2.1.1 Build 136)  -->
  <defs>
    <style>
      .st0 {
        fill: #fff;
      }
    </style>
  </defs>
  <path class="st0" d="M26.08,34.69v-9.11c1.11,0,2.21-.01,3.3,0,1.24.02,2.41-.22,3.5-.81,2.28-1.25,3.45-3.2,3.61-5.78.13-2.05-.32-3.94-1.77-5.46-2.99-3.13-8.66-2.55-11.09,1.08-.83,1.25-1.25,2.6-1.23,4.1.01,1.06,0,2.12,0,3.22h-9.05c-.45-5.09.34-9.79,3.78-13.81,5.6-6.56,15.95-7.67,22.7-2.32,3.62,2.87,5.46,6.72,5.77,11.27.41,6.04-1.83,10.92-6.67,14.55-2.65,1.99-5.69,2.99-9.01,3.06-1.25.03-2.51,0-3.84,0h0Z"/>
  <path class="st0" d="M22.68,25.32v20.58c-.19.02-.36.04-.52.04h-6.76c-1.43,0-2.35-.93-2.36-2.36v-8.58c-.29-.02-.53-.05-.78-.05h-7.73c-1.61,0-2.5-.88-2.5-2.48v-7.15h20.66-.01Z"/>
  <path class="st0" d="M64.46,34.89v-2.21h1.7c1.79,0,3.07-.86,3.6-2.42.57-1.66.13-3.47-1.09-4.44-1.27-1.02-3.09-1.09-4.55-.18-.68.43-1.05.93-1.04,1.84.06,3.88.03,7.75.03,11.63,0,.13,0,.25-.02.46-.73,0-1.44.03-2.14,0-.47-.03-.55-.41-.55-.81v-3.77c0-2.97,0-5.94.02-8.9,0-.35.16-.77.4-1.02,2.12-2.21,4.67-3.03,7.66-2.18,2.29.65,4.05,3.04,4.16,5.42.09,2.14-.5,3.97-2.21,5.34-.93.75-2.01,1.19-3.21,1.25-.9.04-1.81,0-2.75,0h-.01Z"/>
  <path class="st0" d="M118.09,34.94c-1.07,0-2,.03-2.93-.02-.25,0-.54-.24-.72-.45-1.39-1.65-2.76-3.33-4.15-4.99-.13-.16-.28-.3-.53-.57v6.01c-.75,0-1.44.05-2.11-.03-.21-.02-.41-.36-.56-.58-.07-.11-.02-.3-.02-.45,0-4.9,0-9.79-.01-14.69,0-.49.15-.73.58-.91.67-.29,1.32-.64,2.09-1.02v10.71c.05.02.1.03.15.05.45-.51.9-1.02,1.35-1.54.94-1.1,1.86-2.22,2.82-3.31.17-.19.49-.34.75-.36.84-.04,1.68-.02,2.68-.02-1.73,1.96-3.38,3.83-5.07,5.75,1.87,2.11,3.72,4.2,5.68,6.41h0Z"/>
  <path class="st0" d="M95.64,34.94h-1.92c-.47,0-.7-.24-.7-.73,0-2.9,0-5.8.01-8.7,0-.2.06-.44.18-.59,2.35-2.85,7.24-3.64,9.94-.39.84,1.01,1.25,2.19,1.29,3.46.06,2.29.02,4.58.02,6.92h-2.62v-.77c-.03-2.1-.05-4.2-.08-6.29-.03-1.93-2.32-3.82-4.87-2.55-.84.42-1.33.97-1.28,2.07.11,2.27.03,4.55.03,6.82v.77-.02Z"/>
  <path class="st0" d="M54.18,19.08c0,1.13.02,2.12,0,3.12,0,.46.14.6.59.59.95-.03,1.89,0,2.88,0v2.31h-3.39c-.03.23-.06.39-.06.56v5.27c0,1.28.5,1.76,1.78,1.76h2.71v2.23c-1.28,0-2.57.06-3.85,0-2.21-.13-3.27-1.3-3.27-3.52v-10.4c0-.42.09-.67.5-.85.69-.29,1.35-.66,2.14-1.06h-.03Z"/>
  <path class="st0" d="M84.71,17.24v17.68c-.7,0-1.4.03-2.1,0-.5-.03-.5-.43-.5-.82v-15.08c0-.35.1-.54.42-.68.72-.33,1.42-.7,2.19-1.09h-.01Z"/>
  <path class="st0" d="M90.13,34.94h-1.92c-.4,0-.65-.2-.65-.64v-11.47h2.57v12.11Z"/>
  <path class="st0" d="M74.7,27.51h4.88v2.67h-3.39c-.1,0-.26-.09-.3-.18-.4-.8-.78-1.61-1.19-2.48h0Z"/>
  <path class="st0" d="M88.85,19.9h-.59c-.91,0-1.27-.39-1.2-1.31.06-.96.98-1.7,1.99-1.61.99.1,1.73.96,1.63,1.91-.07.74-.37,1.01-1.12,1.01h-.72.01Z"/>
</svg>