<?xml version="1.0" encoding="UTF-8"?>
<svg id="Layer_1" xmlns="http://www.w3.org/2000/svg" version="1.1" viewBox="0 0 122.87 79.08">
  <!-- Generator: Adobe Illustrator 30.1.0, SVG Export Plug-In . SVG Version: 2.1.1 Build 136)  -->
  <defs>
    <style>
      .st0 {
        fill: #fff;
      }
    </style>
  </defs>
  <path class="st0" d="M116.37,3.69h-15.21c-.64,0-1.17.51-1.18,1.15h0v69.4c0,.64.54,1.16,1.18,1.15h15.22c.64,0,1.17-.51,1.18-1.15h0V4.84c0-.64-.54-1.16-1.18-1.15h0Z"/>
  <path class="st0" d="M64.43,3.69H6.5c-.64,0-1.17.51-1.18,1.15,0,0,0,0,0,0v69.4c0,.64.54,1.16,1.18,1.15h15.22c.64,0,1.17-.51,1.18-1.15h0V19.77c0-.64.54-1.16,1.18-1.15h32.77c9.2,0,11.83,7.06,11.83,11.61v44.06c0,.64.54,1.16,1.18,1.15h15.2c.64,0,1.17-.51,1.18-1.15h0V25.01c.32-5.6-1.76-11.07-5.73-15.04-4.18-4.36-10.06-6.66-16.08-6.29v.02Z"/>
  <path class="st0" d="M53.78,31.33h-15.97c-.65,0-1.18.5-1.2,1.15v41.76c0,.64.54,1.16,1.18,1.15,0,0,.01,0,.02,0h15.97c.64,0,1.17-.51,1.18-1.15h0v-41.68c0-.64-.54-1.16-1.18-1.15h0v-.08Z"/>
</svg>